<svg height='100px' width='100px'  fill="#3BB300" xmlns="http://www.w3.org/2000/svg" xmlns:xlink="http://www.w3.org/1999/xlink" xml:space="preserve" version="1.1" style="shape-rendering:geometricPrecision;text-rendering:geometricPrecision;image-rendering:optimizeQuality;" viewBox="0 0 59.18 62.41" x="0px" y="0px" fill-rule="evenodd" clip-rule="evenodd"><defs><style type="text/css">
   
    .fil0 {fill:#3BB300;fill-rule:nonzero}
   
  </style></defs><g><path class="fil0" d="M58.89 19.57c0.45,0.77 0.35,1.71 -0.18,2.37l-5.63 7.11 0 4.32 5.64 7.1c0.57,0.72 0.6,1.71 0.13,2.45l-4.53 7.84c-0.44,0.78 -1.31,1.16 -2.14,1.04l-8.99 -1.33 -3.72 2.14 -3.34 8.45c-0.33,0.84 -1.13,1.35 -1.98,1.35 -3.04,0 -6.08,0 -9.13,0 -0.92,0 -1.71,-0.59 -2,-1.42l-3.31 -8.38 -3.72 -2.14 -8.99 1.33c-0.95,0.14 -1.85,-0.37 -2.23,-1.2 -1.5,-2.58 -2.99,-5.17 -4.48,-7.75 -0.45,-0.78 -0.35,-1.72 0.18,-2.38l5.63 -7.1 0 -4.32 -5.64 -7.11c-0.57,-0.72 -0.6,-1.71 -0.13,-2.45l4.52 -7.84c0.45,-0.77 1.31,-1.16 2.15,-1.04l8.99 1.33 3.72 -2.14 3.33 -8.45c0.33,-0.84 1.14,-1.35 1.98,-1.35 3.05,0 6.09,0 9.13,0 0.93,0 1.72,0.59 2.01,1.42l3.31 8.38 3.72 2.14 8.99 -1.33c0.95,-0.14 1.84,0.37 2.23,1.2 1.49,2.58 2.99,5.17 4.48,7.76zm-4.93 -0.06l-8.46 4.91c0.89,2.09 1.38,4.38 1.38,6.79 0,2.4 -0.49,4.7 -1.38,6.78l8.46 4.91 0.53 -0.92 -5.13 -6.46c-0.34,-0.37 -0.54,-0.87 -0.54,-1.42l0 -5.79c0,-0.46 0.15,-0.93 0.46,-1.32l5.21 -6.56 -0.53 -0.92zm-2.13 27.07l-8.47 -4.92c-2.81,3.7 -7,6.14 -11.64,6.71l0 9.78 0.99 0 3.07 -7.78c0,0 0.81,-0.99 0.92,-1.06l4.87 -2.81c0.43,-0.29 0.96,-0.43 1.51,-0.35l8.29 1.23 0.46 -0.8zm-24.37 11.57l0 -9.78c-4.66,-0.57 -8.82,-3 -11.64,-6.71l-8.48 4.92 0.46 0.8 8.29 -1.23c0.46,-0.06 0.94,0.02 1.37,0.27l4.86 2.8c0.47,0.23 0.87,0.62 1.08,1.15l3.07 7.78 0.99 0zm-22.24 -15.25l8.46 -4.91c-0.89,-2.08 -1.39,-4.38 -1.39,-6.78 0,-2.41 0.5,-4.71 1.38,-6.79l-8.45 -4.91 -0.53 0.92 5.13 6.46c0.33,0.38 0.54,0.87 0.54,1.42l0 5.79c0,0.47 -0.15,0.93 -0.47,1.32l-5.2 6.56 0.53 0.92zm2.12 -27.07l8.47 4.92c2.82,-3.71 7.02,-6.14 11.65,-6.71l0 -9.78 -0.99 0 -3.07 7.78c-0.01,0 -0.82,1 -0.93,1.06l-4.86 2.81c-0.43,0.29 -0.96,0.43 -1.52,0.35l-8.28 -1.23 -0.47 0.8zm24.38 -11.57l0 9.78c4.64,0.57 8.82,3.01 11.64,6.71l8.48 -4.92 -0.47 -0.8 -8.29 1.23c-0.45,0.06 -0.93,-0.02 -1.36,-0.27l-4.86 -2.8c-0.48,-0.22 -0.87,-0.62 -1.08,-1.15l-3.07 -7.78 -0.99 0zm-2.13 21.75c-2.87,0 -5.2,2.33 -5.2,5.2 0,2.87 2.33,5.19 5.2,5.19 2.87,0 5.19,-2.32 5.19,-5.19 0,-2.87 -2.32,-5.2 -5.19,-5.2z"></path></g></svg>